<svg width="21" height="15" viewBox="0 0 21 15" fill="none" xmlns="http://www.w3.org/2000/svg">
<g clip-path="url(#clip0_409_7537)">
<rect width="21" height="15" rx="3" fill="#1A47B8"/>
<path d="M19 0H2C0.89543 0 0 0.89543 0 2V13C0 14.1046 0.89543 15 2 15H19C20.1046 15 21 14.1046 21 13V2C21 0.89543 20.1046 0 19 0Z" fill="#1A47B8"/>
<path d="M22.0051 -0.344727H0V14.2922H22.0051V-0.344727Z" fill="#1A47B8"/>
<mask id="mask0_409_7537" style="mask-type:luminance" maskUnits="userSpaceOnUse" x="0" y="-1" width="12" height="8">
<path d="M0 -0.344727H11.0026V6.97372H0V-0.344727Z" fill="white"/>
</mask>
<g mask="url(#mask0_409_7537)">
<path d="M0 -0.344727L11.0026 6.97372ZM11.0026 -0.344727L0 6.97372Z" fill="#000008"/>
<path d="M0 -0.344727L11.0026 6.97372M11.0026 -0.344727L0 6.97372" stroke="white" stroke-width="1.46369"/>
</g>
<mask id="mask1_409_7537" style="mask-type:luminance" maskUnits="userSpaceOnUse" x="0" y="-1" width="12" height="8">
<path d="M0 -0.344727V3.3145H11.0026V6.97372L0 -0.344727ZM11.0026 -0.344727H5.50128V6.97372H0L11.0026 -0.344727Z" fill="white"/>
</mask>
<g mask="url(#mask1_409_7537)">
<path d="M0 -0.344727L11.0026 6.97372ZM11.0026 -0.344727L0 6.97372Z" fill="#000008"/>
<path d="M0 -0.344727L11.0026 6.97372M11.0026 -0.344727L0 6.97372" stroke="#F93939" stroke-width="0.975793"/>
</g>
<path d="M5.50128 -0.344727V6.97372ZM0 3.3145H11.0026Z" fill="#000008"/>
<path d="M5.50128 -0.344727V6.97372M0 3.3145H11.0026" stroke="white" stroke-width="2.43948"/>
<path d="M5.50128 -0.344727V6.97372ZM0 3.3145H11.0026Z" fill="#000008"/>
<path d="M5.50128 -0.344727V6.97372M0 3.3145H11.0026" stroke="#F93939" stroke-width="1.46369"/>
<path opacity="0.5" fill-rule="evenodd" clip-rule="evenodd" d="M4 11.5L5 11L5.5 10L6 11L7 11.5L6 12L5.5 13L5 12L4 11.5ZM14 3V4H15V3H14ZM17 4V5H18V4H17ZM13 6V7H14V6H13ZM16 7V8H17V7H16ZM15 10V11H16V10H15Z" fill="white"/>
</g>
<defs>
<clipPath id="clip0_409_7537">
<rect width="21" height="15" rx="3" fill="white"/>
</clipPath>
</defs>
</svg>
