<svg width="16" height="16" viewBox="0 0 16 16" fill="none" xmlns="http://www.w3.org/2000/svg">
<g clip-path="url(#clip0_110_2080)">
<path d="M7.99992 1.33301C4.31992 1.33301 1.33325 4.31967 1.33325 7.99967C1.33325 11.6797 4.31992 14.6663 7.99992 14.6663C11.6799 14.6663 14.6666 11.6797 14.6666 7.99967C14.6666 4.31967 11.6799 1.33301 7.99992 1.33301ZM7.99992 13.333C5.05325 13.333 2.66659 10.9463 2.66659 7.99967C2.66659 5.05301 5.05325 2.66634 7.99992 2.66634C10.9466 2.66634 13.3333 5.05301 13.3333 7.99967C13.3333 10.9463 10.9466 13.333 7.99992 13.333Z" fill="currentColor"/>
<path d="M8.00008 11.3337C9.84103 11.3337 11.3334 9.84127 11.3334 8.00033C11.3334 6.15938 9.84103 4.66699 8.00008 4.66699C6.15913 4.66699 4.66675 6.15938 4.66675 8.00033C4.66675 9.84127 6.15913 11.3337 8.00008 11.3337Z" fill="currentColor"/>
</g>
<defs>
<clipPath id="clip0_110_2080">
<rect width="16" height="16" fill="white"/>
</clipPath>
</defs>
</svg>
