<svg width="16" height="16" viewBox="0 0 16 16" fill="none" xmlns="http://www.w3.org/2000/svg">
<g clip-path="url(#clip0_279_3008)">
<path d="M7.9935 1.3335C4.3135 1.3335 1.3335 4.3135 1.3335 8.00016C1.3335 11.6868 4.3135 14.6668 7.9935 14.6668C11.6735 14.6668 14.6668 11.6868 14.6668 8.00016C14.6668 4.3135 11.6802 1.3335 7.9935 1.3335ZM8.00016 13.3335C5.0535 13.3335 2.66683 10.9468 2.66683 8.00016C2.66683 5.0535 5.0535 2.66683 8.00016 2.66683C10.9468 2.66683 13.3335 5.0535 13.3335 8.00016C13.3335 10.9468 10.9468 13.3335 8.00016 13.3335ZM8.66683 6.62683L9.3735 7.3335L10.0802 6.62683L10.7868 7.3335L11.4935 6.62683L10.0802 5.2135L8.66683 6.62683ZM5.92016 6.62683L6.62683 7.3335L7.3335 6.62683L5.92016 5.2135L4.50683 6.62683L5.2135 7.3335L5.92016 6.62683V6.62683ZM8.00016 11.6668C9.5535 11.6668 10.8735 10.6935 11.4068 9.3335H4.5935C5.12683 10.6935 6.44683 11.6668 8.00016 11.6668Z" fill="currentColor"/>
</g>
<defs>
<clipPath id="clip0_279_3008">
<rect width="16" height="16" fill="white"/>
</clipPath>
</defs>
</svg>
